<?xml version="1.0" standalone="no"?>
<!DOCTYPE svg PUBLIC "-//W3C//DTD SVG 20010904//EN"
 "http://www.w3.org/TR/2001/REC-SVG-20010904/DTD/svg10.dtd">
<svg version="1.0" xmlns="http://www.w3.org/2000/svg"
 width="465.000000pt" height="210.000000pt" viewBox="0 0 465.000000 210.000000"
 preserveAspectRatio="xMidYMid meet">

<g transform="translate(0.000000,210.000000) scale(0.100000,-0.100000)"
fill="#000000" stroke="none">
<path d="M1460 1020 l0 -560 55 0 55 0 0 560 0 560 -55 0 -55 0 0 -560z"/>
<path d="M1780 1020 c0 -367 3 -560 10 -560 7 0 10 193 10 560 0 367 -3 560
-10 560 -7 0 -10 -193 -10 -560z"/>
<path d="M2470 1364 c0 -170 -3 -215 -13 -211 -7 2 -153 97 -325 211 -172 113
-315 206 -317 206 -3 0 -5 -250 -5 -555 l0 -555 55 0 55 0 2 438 3 439 250
-164 c138 -90 285 -186 328 -213 l77 -50 0 335 0 335 -55 0 -55 0 0 -216z"/>
<path d="M2778 1045 l-3 -535 -322 215 c-178 118 -325 215 -328 215 -3 0 -5
-108 -5 -240 0 -207 2 -240 15 -240 13 0 15 31 15 215 l0 215 313 -208 c171
-115 318 -212 325 -216 9 -6 12 108 12 553 0 364 -3 561 -10 561 -6 0 -11
-190 -12 -535z"/>
<path d="M3720 1020 l0 -560 305 0 c197 0 305 4 305 10 0 6 -105 10 -295 10
l-295 0 0 550 c0 360 -3 550 -10 550 -7 0 -10 -193 -10 -560z"/>
<path d="M3957 1573 c-4 -3 -7 -210 -7 -460 l0 -453 190 0 190 0 0 55 0 55
-130 0 -130 0 0 405 0 405 -53 0 c-30 0 -57 -3 -60 -7z"/>
<path d="M1155 1185 c-159 -211 -293 -383 -297 -382 -4 1 -132 166 -284 367
-151 201 -282 372 -290 380 -12 12 -14 -60 -14 -538 0 -358 3 -552 10 -552 6
0 11 184 12 517 l3 517 279 -367 c154 -202 283 -366 287 -365 4 2 125 158 269
348 144 190 271 354 281 365 19 19 19 9 19 -498 0 -338 3 -517 10 -517 7 0 10
192 10 555 0 305 -1 555 -2 555 -2 -1 -133 -174 -293 -385z"/>
<path d="M3045 1043 c-115 -285 -215 -533 -222 -550 -11 -28 -11 -33 0 -33 9
0 90 189 222 515 114 284 211 517 214 519 3 2 100 -229 216 -515 126 -313 214
-519 222 -519 11 0 11 6 0 33 -7 17 -107 265 -222 550 -114 284 -211 517 -214
517 -4 0 -101 -233 -216 -517z"/>
<path d="M3257 973 c-3 -4 -49 -118 -102 -253 -53 -135 -99 -251 -102 -258 -4
-10 8 -12 53 -10 l59 3 45 112 c25 62 48 113 51 113 3 0 26 -51 50 -112 l45
-113 58 -3 c52 -3 57 -1 52 15 -25 76 -205 513 -209 506z"/>
<path d="M1100 707 c-96 -131 -176 -243 -178 -248 -2 -5 26 -9 62 -9 l65 0 58
72 58 72 3 -72 3 -72 50 0 c31 0 51 5 55 13 2 7 3 118 2 247 l-3 236 -175
-239z"/>
<path d="M440 697 l0 -247 55 0 54 0 3 72 3 72 55 -72 55 -72 69 0 68 0 -16
25 c-21 33 -325 447 -337 460 -5 5 -9 -94 -9 -238z"/>
<path d="M2364 839 c-10 -17 13 -36 27 -22 12 12 4 33 -11 33 -5 0 -12 -5 -16
-11z"/>
</g>
</svg>
